<svg xmlns="http://www.w3.org/2000/svg" xmlns:xlink="http://www.w3.org/1999/xlink" width="500" zoomAndPan="magnify" viewBox="0 0 375 374.999991" height="500" preserveAspectRatio="xMidYMid meet" version="1.0"><defs><g/><clipPath id="201ca35469"><path d="M 70 139.652344 L 109 139.652344 L 109 190 L 70 190 Z M 70 139.652344 " clip-rule="nonzero"/></clipPath><clipPath id="804f2d72ae"><path d="M 42.527344 168 L 132.527344 168 L 132.527344 219 L 42.527344 219 Z M 42.527344 168 " clip-rule="nonzero"/></clipPath><clipPath id="63d057e41d"><path d="M 26.289062 116.359375 L 148.539062 116.359375 L 148.539062 238.609375 L 26.289062 238.609375 Z M 26.289062 116.359375 " clip-rule="nonzero"/></clipPath><clipPath id="08835ba986"><rect x="0" width="74" y="0" height="46"/></clipPath><clipPath id="b4a15e4956"><rect x="0" width="192" y="0" height="46"/></clipPath></defs><g clip-path="url(#201ca35469)"><path fill="#f79630" d="M 70.945312 181.472656 C 72.726562 183.152344 74.582031 184.789062 76.386719 186.460938 C 77.484375 187.503906 78.652344 188.46875 79.71875 189.542969 C 81.722656 188.492188 83.65625 187.324219 85.660156 186.285156 C 84.941406 184.53125 84.234375 182.777344 83.503906 181.03125 C 81.523438 176.125 79.382812 171.273438 77.425781 166.347656 L 77.667969 166.664062 C 78.550781 168.242188 79.382812 169.855469 80.265625 171.441406 C 80.691406 172.15625 81.003906 172.929688 81.472656 173.609375 C 83.679688 173.632812 85.894531 173.617188 88.097656 173.617188 C 88.597656 172.046875 89.042969 170.46875 89.554688 168.90625 C 90.457031 169.972656 91.914062 170.402344 93.277344 170.277344 C 94.046875 170.214844 94.972656 170.132812 95.449219 169.425781 C 95.792969 168.984375 95.71875 168.410156 95.675781 167.898438 C 95.632812 167.386719 95.800781 166.933594 95.980469 166.480469 C 96.476562 165.390625 97.027344 164.3125 97.230469 163.121094 C 97.632812 163.082031 98.035156 163.0625 98.429688 162.960938 C 98.640625 162.90625 98.785156 162.644531 98.683594 162.441406 C 98.371094 161.496094 97.546875 160.8125 97.3125 159.832031 C 97.214844 159.3125 97.421875 158.816406 97.539062 158.320312 C 97.714844 157.625 97.683594 156.910156 97.675781 156.203125 C 98.101562 156.371094 98.496094 156.617188 98.941406 156.726562 C 102.132812 156.707031 105.324219 156.710938 108.519531 156.683594 C 105.742188 155.367188 102.996094 153.988281 100.203125 152.695312 C 100.074219 152.015625 100.027344 151.328125 99.882812 150.65625 C 99.4375 148.210938 98.371094 145.847656 96.675781 144.015625 C 95.398438 142.640625 93.839844 141.5625 92.109375 140.84375 C 89.597656 139.828125 86.820312 139.667969 84.203125 140.371094 C 81.582031 141.070312 79.238281 142.714844 77.628906 144.886719 C 76.023438 147.054688 75.144531 149.933594 75.015625 152.710938 L 74.21875 152.804688 C 74.160156 153.425781 74.152344 154.039062 74.128906 154.660156 L 76.496094 155.691406 C 76.269531 157.414062 76.914062 159.074219 77.417969 160.6875 C 77.835938 162.058594 77.628906 163.5 77.652344 164.910156 C 75.765625 165.488281 73.933594 166.347656 72.457031 167.6875 C 71.632812 168.417969 70.980469 169.320312 70.355469 170.222656 C 70.476562 170.90625 70.457031 171.617188 70.507812 172.316406 C 70.695312 175.363281 70.710938 178.425781 70.945312 181.472656 Z M 96.332031 144.777344 C 97.246094 145.945312 97.96875 147.28125 98.261719 148.742188 C 98.488281 149.925781 98.613281 151.125 98.722656 152.316406 C 98.371094 152.226562 98.019531 152.125 97.65625 152.074219 C 97.492188 151.589844 97.582031 151.066406 97.515625 150.5625 C 97.296875 148.046875 96.683594 145.433594 95.003906 143.476562 C 95.542969 143.804688 95.9375 144.300781 96.332031 144.777344 Z M 76.890625 152.191406 C 78.351562 150.882812 80.097656 149.867188 82.007812 149.355469 C 85.242188 148.472656 88.800781 149.109375 91.636719 150.839844 C 89.253906 150.519531 86.84375 150.351562 84.429688 150.472656 C 81.84375 150.632812 79.296875 151.210938 76.890625 152.191406 Z M 76.890625 152.191406 " fill-opacity="1" fill-rule="nonzero"/></g><path fill="#f79630" d="M 89.894531 193.707031 C 92.066406 191.625 94.324219 189.644531 96.542969 187.628906 C 96.917969 187.285156 97.261719 186.90625 97.691406 186.636719 C 96.988281 184.722656 96.296875 182.808594 95.550781 180.910156 C 94.570312 178.503906 93.753906 176.042969 92.6875 173.675781 C 92.429688 173.105469 92.117188 172.542969 91.640625 172.136719 C 91.035156 171.636719 90.445312 171.074219 89.675781 170.839844 C 89.371094 171.804688 89.054688 172.769531 88.757812 173.742188 C 89.136719 173.683594 89.515625 173.757812 89.902344 173.75 C 89.890625 180.40625 89.890625 187.054688 89.894531 193.707031 Z M 89.894531 193.707031 " fill-opacity="1" fill-rule="nonzero"/><path fill="#f79630" d="M 100.921875 183.671875 C 100.757812 182.304688 101.109375 180.8125 100.402344 179.558594 C 99.964844 178.671875 99.136719 178.074219 98.28125 177.636719 L 94.34375 175.679688 C 95.550781 179.273438 96.625 182.910156 97.792969 186.511719 C 98.832031 185.5625 99.832031 184.570312 100.921875 183.671875 Z M 100.921875 183.671875 " fill-opacity="1" fill-rule="nonzero"/><path fill="#f79630" d="M 82.007812 174.640625 C 83.789062 178.644531 85.636719 182.625 87.425781 186.628906 C 85.160156 187.835938 82.964844 189.179688 80.714844 190.40625 C 82.78125 192.378906 84.957031 194.234375 87.039062 196.191406 C 87.296875 196.113281 87.457031 195.878906 87.640625 195.695312 C 88.144531 195.175781 88.742188 194.738281 89.222656 194.203125 C 89.210938 187.679688 89.195312 181.15625 89.222656 174.632812 Z M 82.007812 174.640625 " fill-opacity="1" fill-rule="nonzero"/><g clip-path="url(#804f2d72ae)"><path fill="#f79630" d="M 123.960938 184.839844 C 122.011719 183.042969 120.125 181.1875 118.210938 179.351562 C 118.074219 179.199219 117.863281 179.097656 117.789062 178.898438 C 117.789062 175.570312 117.804688 172.230469 117.796875 168.890625 C 117.058594 169.957031 116.304688 171.015625 115.558594 172.078125 C 115.371094 172.316406 115.390625 172.625 115.414062 172.910156 C 109.597656 178.21875 103.792969 183.53125 97.996094 188.84375 C 94.417969 192.109375 90.792969 195.316406 87.230469 198.59375 C 85.609375 197.046875 83.914062 195.578125 82.285156 194.035156 C 80.421875 192.320312 78.519531 190.640625 76.671875 188.910156 C 72.910156 185.417969 69.105469 181.976562 65.320312 178.496094 C 63.429688 176.804688 61.601562 175.035156 59.671875 173.382812 C 59.542969 173.019531 59.703125 172.59375 59.542969 172.238281 C 58.761719 171.125 57.984375 170.007812 57.21875 168.890625 C 57.253906 172.238281 57.203125 175.582031 57.246094 178.9375 C 55.203125 180.894531 53.148438 182.835938 51.117188 184.808594 C 50.4375 184.519531 49.839844 184.070312 49.183594 183.742188 C 46.984375 182.53125 44.777344 181.3125 42.527344 180.179688 C 42.746094 180.433594 42.988281 180.667969 43.242188 180.886719 C 45.105469 182.523438 46.933594 184.203125 48.816406 185.8125 C 60.105469 195.460938 71.375 205.125 82.628906 214.8125 C 84.210938 216.152344 85.753906 217.546875 87.367188 218.847656 C 88.699219 217.632812 90.121094 216.53125 91.480469 215.347656 C 100.972656 207.355469 110.4375 199.339844 119.894531 191.3125 C 122.542969 189.03125 125.234375 186.804688 127.839844 184.480469 C 129.417969 183.058594 131.035156 181.675781 132.539062 180.171875 C 129.609375 181.601562 126.796875 183.238281 123.960938 184.839844 Z M 53.039062 186.386719 C 54.421875 185.035156 55.832031 183.699219 57.210938 182.339844 C 57.242188 184.589844 57.1875 186.847656 57.226562 189.097656 C 55.800781 188.242188 54.472656 187.242188 53.039062 186.386719 Z M 59.996094 188.785156 C 59.964844 189.71875 60.039062 190.660156 59.957031 191.597656 L 59.621094 191.582031 C 59.59375 188.625 59.664062 185.65625 59.628906 182.699219 C 61.753906 184.765625 63.984375 186.738281 66.125 188.792969 C 64.078125 188.777344 62.03125 188.769531 59.996094 188.785156 Z M 115.429688 191.597656 L 115.0625 191.582031 C 115.0625 190.648438 115.085938 189.710938 115.054688 188.777344 C 113.039062 188.804688 111.015625 188.742188 109 188.820312 C 111.097656 186.730469 113.316406 184.765625 115.429688 182.699219 C 115.472656 185.65625 115.464844 188.628906 115.429688 191.597656 Z M 115.4375 179.566406 C 107.421875 186.789062 99.421875 194.03125 91.421875 201.285156 C 90.050781 202.539062 88.648438 203.769531 87.316406 205.074219 C 83.875 201.816406 80.355469 198.652344 76.871094 195.445312 C 71.136719 190.164062 65.386719 184.890625 59.636719 179.628906 C 59.652344 178.351562 59.644531 177.074219 59.621094 175.796875 C 66.21875 181.878906 72.867188 187.929688 79.472656 194.007812 L 87.347656 201.210938 C 96.75 192.714844 106.113281 184.183594 115.445312 175.605469 C 115.480469 176.925781 115.503906 178.25 115.4375 179.566406 Z M 117.78125 189.148438 C 117.855469 186.878906 117.8125 184.605469 117.816406 182.332031 C 119.226562 183.675781 120.644531 185.015625 122.039062 186.375 C 120.570312 187.207031 119.199219 188.214844 117.78125 189.148438 Z M 117.78125 189.148438 " fill-opacity="1" fill-rule="nonzero"/></g><path fill="#f79630" d="M 65.1875 176.167969 C 67.09375 177.929688 68.996094 179.710938 70.902344 181.472656 C 70.683594 181.03125 70.761719 180.535156 70.726562 180.0625 C 70.5 176.941406 70.25 173.828125 70.003906 170.710938 C 69.457031 171.492188 68.996094 172.347656 68.34375 173.039062 C 67.089844 173.824219 65.613281 174.457031 64.851562 175.800781 C 64.925781 175.964844 65.078125 176.050781 65.1875 176.167969 Z M 65.1875 176.167969 " fill-opacity="1" fill-rule="nonzero"/><g clip-path="url(#63d057e41d)"><path fill="#000000" d="M 87.414062 133.890625 C 111.476562 133.890625 131.011719 153.425781 131.011719 177.484375 C 131.011719 201.546875 111.476562 221.082031 87.414062 221.082031 C 63.355469 221.082031 43.820312 201.546875 43.820312 177.484375 C 43.820312 153.425781 63.355469 133.890625 87.414062 133.890625 Z M 91.050781 116.507812 C 88.628906 116.363281 86.203125 116.363281 83.78125 116.507812 L 79.5625 126.160156 C 75.796875 126.738281 72.105469 127.726562 68.554688 129.109375 L 60.074219 122.859375 C 57.90625 123.945312 55.804688 125.160156 53.78125 126.496094 L 54.953125 136.964844 C 51.976562 139.347656 49.277344 142.046875 46.894531 145.023438 L 36.425781 143.847656 C 35.089844 145.875 33.878906 147.976562 32.792969 150.144531 L 39.042969 158.625 C 37.65625 162.175781 36.667969 165.867188 36.09375 169.632812 L 26.441406 173.851562 C 26.296875 176.273438 26.296875 178.699219 26.441406 181.121094 L 36.09375 185.339844 C 36.667969 189.105469 37.65625 192.796875 39.042969 196.347656 L 32.792969 204.824219 C 33.878906 206.996094 35.089844 209.097656 36.425781 211.121094 L 46.894531 209.949219 C 49.277344 212.921875 51.980469 215.625 54.953125 218.007812 L 53.78125 228.472656 C 55.804688 229.808594 57.90625 231.023438 60.074219 232.109375 L 68.554688 225.859375 C 72.105469 227.242188 75.796875 228.234375 79.5625 228.808594 L 83.78125 238.460938 C 86.203125 238.605469 88.628906 238.605469 91.050781 238.460938 L 95.269531 228.808594 C 99.035156 228.234375 102.726562 227.242188 106.277344 225.859375 L 114.753906 232.109375 C 116.925781 231.023438 119.027344 229.808594 121.050781 228.472656 L 119.878906 218.007812 C 122.851562 215.625 125.554688 212.921875 127.9375 209.949219 L 138.40625 211.121094 C 139.742188 209.097656 140.953125 206.996094 142.039062 204.824219 L 135.789062 196.347656 C 137.175781 192.796875 138.164062 189.105469 138.738281 185.339844 L 148.390625 181.121094 C 148.535156 178.699219 148.535156 176.273438 148.390625 173.851562 L 138.738281 169.632812 C 138.164062 165.867188 137.175781 162.175781 135.789062 158.625 L 142.039062 150.144531 C 140.953125 147.976562 139.742188 145.875 138.40625 143.851562 L 127.9375 145.023438 C 125.554688 142.050781 122.851562 139.347656 119.878906 136.964844 L 121.050781 126.496094 C 119.027344 125.160156 116.925781 123.949219 114.753906 122.863281 L 106.277344 129.113281 C 102.726562 127.726562 99.035156 126.738281 95.269531 126.164062 Z M 91.050781 116.507812 " fill-opacity="1" fill-rule="evenodd"/></g><g transform="matrix(1, 0, 0, 1, 150, 156)"><g clip-path="url(#08835ba986)"><g fill="#ff751f" fill-opacity="1"><g transform="translate(0.0102339, 35.017944)"><g><path d="M 18.1875 -14.625 L 18.1875 -23.453125 L 22.796875 -23.453125 L 22.796875 0 L 18.1875 0 L 18.1875 -10.6875 L 7.6875 -10.6875 L 7.6875 0 L 3.046875 0 L 3.046875 -23.453125 L 7.6875 -23.453125 L 7.6875 -14.625 Z M 18.1875 -14.625 "/></g></g></g><g fill="#ff751f" fill-opacity="1"><g transform="translate(25.873809, 35.017944)"><g><path d="M 10.390625 0.34375 C 8.765625 0.34375 7.316406 0.144531 6.046875 -0.25 C 4.785156 -0.65625 3.734375 -1.1875 2.890625 -1.84375 C 2.046875 -2.5 1.398438 -3.21875 0.953125 -4 L 3.5 -7.109375 L 3.890625 -7.109375 C 4.597656 -6.054688 5.492188 -5.21875 6.578125 -4.59375 C 7.671875 -3.976562 8.941406 -3.671875 10.390625 -3.671875 C 11.628906 -3.671875 12.5625 -3.929688 13.1875 -4.453125 C 13.820312 -4.984375 14.140625 -5.707031 14.140625 -6.625 C 14.140625 -7.175781 14.035156 -7.640625 13.828125 -8.015625 C 13.628906 -8.390625 13.296875 -8.707031 12.828125 -8.96875 C 12.359375 -9.238281 11.722656 -9.472656 10.921875 -9.671875 L 7.90625 -10.359375 C 5.800781 -10.835938 4.234375 -11.632812 3.203125 -12.75 C 2.171875 -13.875 1.65625 -15.328125 1.65625 -17.109375 C 1.65625 -18.429688 1.984375 -19.59375 2.640625 -20.59375 C 3.304688 -21.601562 4.269531 -22.382812 5.53125 -22.9375 C 6.800781 -23.5 8.320312 -23.78125 10.09375 -23.78125 C 11.894531 -23.78125 13.4375 -23.539062 14.71875 -23.0625 C 16.007812 -22.59375 17.101562 -21.863281 18 -20.875 L 15.703125 -17.734375 L 15.296875 -17.734375 C 14.640625 -18.429688 13.878906 -18.953125 13.015625 -19.296875 C 12.160156 -19.648438 11.1875 -19.828125 10.09375 -19.828125 C 8.8125 -19.828125 7.835938 -19.597656 7.171875 -19.140625 C 6.515625 -18.691406 6.1875 -18.070312 6.1875 -17.28125 C 6.1875 -16.550781 6.414062 -15.960938 6.875 -15.515625 C 7.34375 -15.078125 8.148438 -14.738281 9.296875 -14.5 L 12.375 -13.859375 C 14.65625 -13.378906 16.304688 -12.5625 17.328125 -11.40625 C 18.359375 -10.257812 18.875 -8.757812 18.875 -6.90625 C 18.875 -5.445312 18.554688 -4.171875 17.921875 -3.078125 C 17.296875 -1.992188 16.347656 -1.148438 15.078125 -0.546875 C 13.804688 0.046875 12.242188 0.34375 10.390625 0.34375 Z M 10.390625 0.34375 "/></g></g></g><g fill="#ff751f" fill-opacity="1"><g transform="translate(45.91687, 35.017944)"><g><path d="M 18.171875 0 L 0.96875 0 L 0.96875 -4.09375 L 12.71875 -19.234375 L 12.609375 -19.5625 L 1.421875 -19.5625 L 1.421875 -23.453125 L 18.0625 -23.453125 L 18.0625 -19.359375 L 6.296875 -4.21875 L 6.421875 -3.875 L 18.171875 -3.875 Z M 18.171875 0 "/></g></g></g><g fill="#ff751f" fill-opacity="1"><g transform="translate(65.075004, 35.017944)"><g/></g></g></g></g><g transform="matrix(1, 0, 0, 1, 148, 195)"><g clip-path="url(#b4a15e4956)"><g fill="#ff751f" fill-opacity="1"><g transform="translate(0.199189, 35.356569)"><g><path d="M 7.6875 -10.296875 L 7.6875 -3.875 L 18.875 -3.875 L 18.875 0 L 3.046875 0 L 3.046875 -23.453125 L 18.625 -23.453125 L 18.625 -19.5625 L 7.6875 -19.5625 L 7.6875 -14.078125 L 17.234375 -14.078125 L 17.234375 -10.296875 Z M 7.6875 -10.296875 "/></g></g></g><g fill="#ff751f" fill-opacity="1"><g transform="translate(20.3545, 35.356569)"><g><path d="M 2.546875 0 L 2.546875 -17.6875 L 6.8125 -17.6875 L 6.8125 -15.09375 L 7.15625 -15.015625 C 8.25 -17.023438 10.035156 -18.03125 12.515625 -18.03125 C 14.554688 -18.03125 16.050781 -17.472656 17 -16.359375 C 17.957031 -15.242188 18.4375 -13.625 18.4375 -11.5 L 18.4375 0 L 14 0 L 14 -10.953125 C 14 -12.128906 13.765625 -12.972656 13.296875 -13.484375 C 12.828125 -14.003906 12.070312 -14.265625 11.03125 -14.265625 C 9.757812 -14.265625 8.765625 -13.851562 8.046875 -13.03125 C 7.335938 -12.207031 6.984375 -10.914062 6.984375 -9.15625 L 6.984375 0 Z M 2.546875 0 "/></g></g></g><g fill="#ff751f" fill-opacity="1"><g transform="translate(41.071009, 35.356569)"><g><path d="M 9.171875 7.5 C 6.253906 7.5 4.097656 7.070312 2.703125 6.21875 C 1.316406 5.363281 0.625 4.171875 0.625 2.640625 C 0.625 1.710938 0.921875 0.953125 1.515625 0.359375 C 2.109375 -0.234375 2.960938 -0.628906 4.078125 -0.828125 L 4.078125 -1.171875 C 3.472656 -1.535156 3.039062 -1.9375 2.78125 -2.375 C 2.519531 -2.820312 2.390625 -3.335938 2.390625 -3.921875 C 2.390625 -5.347656 3.3125 -6.304688 5.15625 -6.796875 L 5.15625 -7.140625 C 4.207031 -7.679688 3.492188 -8.351562 3.015625 -9.15625 C 2.535156 -9.96875 2.296875 -10.945312 2.296875 -12.09375 C 2.296875 -13.269531 2.5625 -14.300781 3.09375 -15.1875 C 3.632812 -16.082031 4.425781 -16.78125 5.46875 -17.28125 C 6.519531 -17.78125 7.769531 -18.03125 9.21875 -18.03125 C 10.695312 -18.03125 11.875 -17.769531 12.75 -17.25 C 13.289062 -18.039062 13.609375 -18.957031 13.703125 -20 L 14.03125 -20.203125 L 17.21875 -19.421875 C 17.125 -18.578125 16.878906 -17.867188 16.484375 -17.296875 C 16.085938 -16.722656 15.472656 -16.210938 14.640625 -15.765625 L 14.640625 -15.40625 C 15.640625 -14.53125 16.140625 -13.304688 16.140625 -11.734375 C 16.140625 -10.648438 15.863281 -9.671875 15.3125 -8.796875 C 14.769531 -7.929688 13.976562 -7.25 12.9375 -6.75 C 11.894531 -6.25 10.65625 -6 9.21875 -6 L 8.546875 -6.015625 C 8.117188 -6.035156 7.820312 -6.046875 7.65625 -6.046875 C 7.25 -6.046875 6.925781 -5.9375 6.6875 -5.71875 C 6.457031 -5.5 6.34375 -5.21875 6.34375 -4.875 C 6.34375 -4.5 6.492188 -4.207031 6.796875 -4 C 7.097656 -3.789062 7.535156 -3.675781 8.109375 -3.65625 L 12.078125 -3.515625 C 15.992188 -3.390625 17.953125 -1.703125 17.953125 1.546875 C 17.953125 2.679688 17.660156 3.695312 17.078125 4.59375 C 16.492188 5.488281 15.546875 6.195312 14.234375 6.71875 C 12.929688 7.238281 11.242188 7.5 9.171875 7.5 Z M 9.21875 -9.109375 C 10.070312 -9.109375 10.738281 -9.359375 11.21875 -9.859375 C 11.707031 -10.359375 11.953125 -11.078125 11.953125 -12.015625 C 11.953125 -12.941406 11.707031 -13.648438 11.21875 -14.140625 C 10.738281 -14.640625 10.070312 -14.890625 9.21875 -14.890625 C 8.351562 -14.890625 7.6875 -14.640625 7.21875 -14.140625 C 6.75 -13.648438 6.515625 -12.941406 6.515625 -12.015625 C 6.515625 -11.066406 6.75 -10.34375 7.21875 -9.84375 C 7.6875 -9.351562 8.351562 -9.109375 9.21875 -9.109375 Z M 9.171875 4.28125 C 10.691406 4.28125 11.796875 4.066406 12.484375 3.640625 C 13.171875 3.210938 13.515625 2.65625 13.515625 1.96875 C 13.515625 1.414062 13.335938 1.007812 12.984375 0.75 C 12.628906 0.488281 12.070312 0.347656 11.3125 0.328125 L 7.8125 0.15625 C 7.695312 0.15625 7.585938 0.148438 7.484375 0.140625 C 7.378906 0.128906 7.28125 0.125 7.1875 0.125 C 6.4375 0.125 5.863281 0.285156 5.46875 0.609375 C 5.082031 0.929688 4.890625 1.375 4.890625 1.9375 C 4.890625 2.6875 5.25 3.265625 5.96875 3.671875 C 6.6875 4.078125 7.753906 4.28125 9.171875 4.28125 Z M 9.171875 4.28125 "/></g></g></g><g fill="#ff751f" fill-opacity="1"><g transform="translate(59.46253, 35.356569)"><g><path d="M 4.765625 -19.8125 C 3.960938 -19.8125 3.304688 -20.050781 2.796875 -20.53125 C 2.296875 -21.019531 2.046875 -21.648438 2.046875 -22.421875 C 2.046875 -23.179688 2.296875 -23.800781 2.796875 -24.28125 C 3.304688 -24.769531 3.960938 -25.015625 4.765625 -25.015625 C 5.296875 -25.015625 5.769531 -24.898438 6.1875 -24.671875 C 6.601562 -24.453125 6.925781 -24.144531 7.15625 -23.75 C 7.382812 -23.363281 7.5 -22.921875 7.5 -22.421875 C 7.5 -21.921875 7.382812 -21.472656 7.15625 -21.078125 C 6.925781 -20.679688 6.601562 -20.367188 6.1875 -20.140625 C 5.769531 -19.921875 5.296875 -19.8125 4.765625 -19.8125 Z M 2.546875 0 L 2.546875 -17.6875 L 6.984375 -17.6875 L 6.984375 0 Z M 2.546875 0 "/></g></g></g><g fill="#ff751f" fill-opacity="1"><g transform="translate(68.986993, 35.356569)"><g><path d="M 2.546875 0 L 2.546875 -17.6875 L 6.8125 -17.6875 L 6.8125 -15.09375 L 7.15625 -15.015625 C 8.25 -17.023438 10.035156 -18.03125 12.515625 -18.03125 C 14.554688 -18.03125 16.050781 -17.472656 17 -16.359375 C 17.957031 -15.242188 18.4375 -13.625 18.4375 -11.5 L 18.4375 0 L 14 0 L 14 -10.953125 C 14 -12.128906 13.765625 -12.972656 13.296875 -13.484375 C 12.828125 -14.003906 12.070312 -14.265625 11.03125 -14.265625 C 9.757812 -14.265625 8.765625 -13.851562 8.046875 -13.03125 C 7.335938 -12.207031 6.984375 -10.914062 6.984375 -9.15625 L 6.984375 0 Z M 2.546875 0 "/></g></g></g><g fill="#ff751f" fill-opacity="1"><g transform="translate(89.703502, 35.356569)"><g><path d="M 17.484375 -7.84375 L 6.109375 -7.84375 C 6.234375 -6.300781 6.671875 -5.179688 7.421875 -4.484375 C 8.171875 -3.785156 9.191406 -3.4375 10.484375 -3.4375 C 11.503906 -3.4375 12.328125 -3.625 12.953125 -4 C 13.585938 -4.382812 14.097656 -4.957031 14.484375 -5.71875 L 14.8125 -5.71875 L 17.765625 -3.828125 C 17.191406 -2.585938 16.320312 -1.582031 15.15625 -0.8125 C 13.988281 -0.0390625 12.429688 0.34375 10.484375 0.34375 C 8.660156 0.34375 7.082031 -0.00390625 5.75 -0.703125 C 4.414062 -1.398438 3.390625 -2.4375 2.671875 -3.8125 C 1.953125 -5.1875 1.59375 -6.863281 1.59375 -8.84375 C 1.59375 -10.84375 1.96875 -12.53125 2.71875 -13.90625 C 3.476562 -15.289062 4.503906 -16.320312 5.796875 -17 C 7.097656 -17.6875 8.554688 -18.03125 10.171875 -18.03125 C 12.671875 -18.03125 14.582031 -17.363281 15.90625 -16.03125 C 17.238281 -14.707031 17.90625 -12.765625 17.90625 -10.203125 C 17.90625 -9.265625 17.875 -8.539062 17.8125 -8.03125 Z M 13.65625 -10.71875 C 13.613281 -12.0625 13.300781 -13.039062 12.71875 -13.65625 C 12.132812 -14.269531 11.285156 -14.578125 10.171875 -14.578125 C 7.921875 -14.578125 6.597656 -13.289062 6.203125 -10.71875 Z M 13.65625 -10.71875 "/></g></g></g><g fill="#ff751f" fill-opacity="1"><g transform="translate(108.928815, 35.356569)"><g><path d="M 17.484375 -7.84375 L 6.109375 -7.84375 C 6.234375 -6.300781 6.671875 -5.179688 7.421875 -4.484375 C 8.171875 -3.785156 9.191406 -3.4375 10.484375 -3.4375 C 11.503906 -3.4375 12.328125 -3.625 12.953125 -4 C 13.585938 -4.382812 14.097656 -4.957031 14.484375 -5.71875 L 14.8125 -5.71875 L 17.765625 -3.828125 C 17.191406 -2.585938 16.320312 -1.582031 15.15625 -0.8125 C 13.988281 -0.0390625 12.429688 0.34375 10.484375 0.34375 C 8.660156 0.34375 7.082031 -0.00390625 5.75 -0.703125 C 4.414062 -1.398438 3.390625 -2.4375 2.671875 -3.8125 C 1.953125 -5.1875 1.59375 -6.863281 1.59375 -8.84375 C 1.59375 -10.84375 1.96875 -12.53125 2.71875 -13.90625 C 3.476562 -15.289062 4.503906 -16.320312 5.796875 -17 C 7.097656 -17.6875 8.554688 -18.03125 10.171875 -18.03125 C 12.671875 -18.03125 14.582031 -17.363281 15.90625 -16.03125 C 17.238281 -14.707031 17.90625 -12.765625 17.90625 -10.203125 C 17.90625 -9.265625 17.875 -8.539062 17.8125 -8.03125 Z M 13.65625 -10.71875 C 13.613281 -12.0625 13.300781 -13.039062 12.71875 -13.65625 C 12.132812 -14.269531 11.285156 -14.578125 10.171875 -14.578125 C 7.921875 -14.578125 6.597656 -13.289062 6.203125 -10.71875 Z M 13.65625 -10.71875 "/></g></g></g><g fill="#ff751f" fill-opacity="1"><g transform="translate(128.154127, 35.356569)"><g><path d="M 2.546875 0 L 2.546875 -17.6875 L 6.859375 -17.6875 L 6.859375 -15.0625 L 7.203125 -15 C 7.628906 -15.976562 8.1875 -16.695312 8.875 -17.15625 C 9.570312 -17.613281 10.421875 -17.84375 11.421875 -17.84375 C 12.421875 -17.84375 13.1875 -17.675781 13.71875 -17.34375 L 12.953125 -13.5 L 12.625 -13.4375 C 12.332031 -13.550781 12.050781 -13.632812 11.78125 -13.6875 C 11.519531 -13.75 11.195312 -13.78125 10.8125 -13.78125 C 9.570312 -13.78125 8.625 -13.34375 7.96875 -12.46875 C 7.3125 -11.59375 6.984375 -10.195312 6.984375 -8.28125 L 6.984375 0 Z M 2.546875 0 "/></g></g></g><g fill="#ff751f" fill-opacity="1"><g transform="translate(142.023934, 35.356569)"><g><path d="M 4.765625 -19.8125 C 3.960938 -19.8125 3.304688 -20.050781 2.796875 -20.53125 C 2.296875 -21.019531 2.046875 -21.648438 2.046875 -22.421875 C 2.046875 -23.179688 2.296875 -23.800781 2.796875 -24.28125 C 3.304688 -24.769531 3.960938 -25.015625 4.765625 -25.015625 C 5.296875 -25.015625 5.769531 -24.898438 6.1875 -24.671875 C 6.601562 -24.453125 6.925781 -24.144531 7.15625 -23.75 C 7.382812 -23.363281 7.5 -22.921875 7.5 -22.421875 C 7.5 -21.921875 7.382812 -21.472656 7.15625 -21.078125 C 6.925781 -20.679688 6.601562 -20.367188 6.1875 -20.140625 C 5.769531 -19.921875 5.296875 -19.8125 4.765625 -19.8125 Z M 2.546875 0 L 2.546875 -17.6875 L 6.984375 -17.6875 L 6.984375 0 Z M 2.546875 0 "/></g></g></g><g fill="#ff751f" fill-opacity="1"><g transform="translate(151.548397, 35.356569)"><g><path d="M 2.546875 0 L 2.546875 -17.6875 L 6.8125 -17.6875 L 6.8125 -15.09375 L 7.15625 -15.015625 C 8.25 -17.023438 10.035156 -18.03125 12.515625 -18.03125 C 14.554688 -18.03125 16.050781 -17.472656 17 -16.359375 C 17.957031 -15.242188 18.4375 -13.625 18.4375 -11.5 L 18.4375 0 L 14 0 L 14 -10.953125 C 14 -12.128906 13.765625 -12.972656 13.296875 -13.484375 C 12.828125 -14.003906 12.070312 -14.265625 11.03125 -14.265625 C 9.757812 -14.265625 8.765625 -13.851562 8.046875 -13.03125 C 7.335938 -12.207031 6.984375 -10.914062 6.984375 -9.15625 L 6.984375 0 Z M 2.546875 0 "/></g></g></g><g fill="#ff751f" fill-opacity="1"><g transform="translate(172.264906, 35.356569)"><g><path d="M 9.171875 7.5 C 6.253906 7.5 4.097656 7.070312 2.703125 6.21875 C 1.316406 5.363281 0.625 4.171875 0.625 2.640625 C 0.625 1.710938 0.921875 0.953125 1.515625 0.359375 C 2.109375 -0.234375 2.960938 -0.628906 4.078125 -0.828125 L 4.078125 -1.171875 C 3.472656 -1.535156 3.039062 -1.9375 2.78125 -2.375 C 2.519531 -2.820312 2.390625 -3.335938 2.390625 -3.921875 C 2.390625 -5.347656 3.3125 -6.304688 5.15625 -6.796875 L 5.15625 -7.140625 C 4.207031 -7.679688 3.492188 -8.351562 3.015625 -9.15625 C 2.535156 -9.96875 2.296875 -10.945312 2.296875 -12.09375 C 2.296875 -13.269531 2.5625 -14.300781 3.09375 -15.1875 C 3.632812 -16.082031 4.425781 -16.78125 5.46875 -17.28125 C 6.519531 -17.78125 7.769531 -18.03125 9.21875 -18.03125 C 10.695312 -18.03125 11.875 -17.769531 12.75 -17.25 C 13.289062 -18.039062 13.609375 -18.957031 13.703125 -20 L 14.03125 -20.203125 L 17.21875 -19.421875 C 17.125 -18.578125 16.878906 -17.867188 16.484375 -17.296875 C 16.085938 -16.722656 15.472656 -16.210938 14.640625 -15.765625 L 14.640625 -15.40625 C 15.640625 -14.53125 16.140625 -13.304688 16.140625 -11.734375 C 16.140625 -10.648438 15.863281 -9.671875 15.3125 -8.796875 C 14.769531 -7.929688 13.976562 -7.25 12.9375 -6.75 C 11.894531 -6.25 10.65625 -6 9.21875 -6 L 8.546875 -6.015625 C 8.117188 -6.035156 7.820312 -6.046875 7.65625 -6.046875 C 7.25 -6.046875 6.925781 -5.9375 6.6875 -5.71875 C 6.457031 -5.5 6.34375 -5.21875 6.34375 -4.875 C 6.34375 -4.5 6.492188 -4.207031 6.796875 -4 C 7.097656 -3.789062 7.535156 -3.675781 8.109375 -3.65625 L 12.078125 -3.515625 C 15.992188 -3.390625 17.953125 -1.703125 17.953125 1.546875 C 17.953125 2.679688 17.660156 3.695312 17.078125 4.59375 C 16.492188 5.488281 15.546875 6.195312 14.234375 6.71875 C 12.929688 7.238281 11.242188 7.5 9.171875 7.5 Z M 9.21875 -9.109375 C 10.070312 -9.109375 10.738281 -9.359375 11.21875 -9.859375 C 11.707031 -10.359375 11.953125 -11.078125 11.953125 -12.015625 C 11.953125 -12.941406 11.707031 -13.648438 11.21875 -14.140625 C 10.738281 -14.640625 10.070312 -14.890625 9.21875 -14.890625 C 8.351562 -14.890625 7.6875 -14.640625 7.21875 -14.140625 C 6.75 -13.648438 6.515625 -12.941406 6.515625 -12.015625 C 6.515625 -11.066406 6.75 -10.34375 7.21875 -9.84375 C 7.6875 -9.351562 8.351562 -9.109375 9.21875 -9.109375 Z M 9.171875 4.28125 C 10.691406 4.28125 11.796875 4.066406 12.484375 3.640625 C 13.171875 3.210938 13.515625 2.65625 13.515625 1.96875 C 13.515625 1.414062 13.335938 1.007812 12.984375 0.75 C 12.628906 0.488281 12.070312 0.347656 11.3125 0.328125 L 7.8125 0.15625 C 7.695312 0.15625 7.585938 0.148438 7.484375 0.140625 C 7.378906 0.128906 7.28125 0.125 7.1875 0.125 C 6.4375 0.125 5.863281 0.285156 5.46875 0.609375 C 5.082031 0.929688 4.890625 1.375 4.890625 1.9375 C 4.890625 2.6875 5.25 3.265625 5.96875 3.671875 C 6.6875 4.078125 7.753906 4.28125 9.171875 4.28125 Z M 9.171875 4.28125 "/></g></g></g></g></g><path stroke-linecap="butt" transform="matrix(0.749975, 0.00607374, -0.00607374, 0.749975, 87.28436, 236.763896)" fill="none" stroke-linejoin="miter" d="M -0.00182503 3.502435 L 368.697781 3.500961 " stroke="#ff751f" stroke-width="7" stroke-opacity="1" stroke-miterlimit="4"/><path stroke-linecap="butt" transform="matrix(0.75, 0, 0, 0.75, 148.199188, 154.727435)" fill="none" stroke-linejoin="miter" d="M 0.000040509 3.498836 L 238.869848 3.498836 " stroke="#ff751f" stroke-width="7" stroke-opacity="1" stroke-miterlimit="4"/></svg>